<svg xmlns="http://www.w3.org/2000/svg" viewBox="0 0 512 512">
  <defs>
    <linearGradient id="paper2" x1="0" y1="0" x2="1" y2="1">
      <stop offset="0" stop-color="#f2e9d2"/>
      <stop offset="1" stop-color="#e3d3b2"/>
    </linearGradient>
    <filter id="ink2" x="-20%" y="-20%" width="140%" height="140%">
      <feTurbulence type="fractalNoise" baseFrequency="0.85" numOctaves="2" seed="7"/>
      <feBlend mode="multiply" in2="SourceGraphic"/>
      <feComponentTransfer><feFuncA type="linear" slope="0.2"/></feComponentTransfer>
    </filter>
  </defs>
  <rect width="512" height="512" rx="34" fill="url(#paper2)"/>

  <!-- 山海經怪：虎身鳥翼、長舌，混入搞笑：手拿珍奶 -->
  <path d="M102 292q-26-132 88-180q114-48 218 28q106 74 66 196q-40 122-202 124q-162 2-170-168z"
        fill="#b59a73" stroke="#1d1710" stroke-width="8"/>
  <path d="M144 250q-66-34-92-102q84 10 128 64" fill="#c6b08a" stroke="#1d1710" stroke-width="7"/>
  <path d="M366 244q54-32 88-96q-82 8-122 58" fill="#c6b08a" stroke="#1d1710" stroke-width="7"/>

  <ellipse cx="214" cy="246" rx="24" ry="18" fill="#fff" stroke="#1b1510" stroke-width="5"/>
  <ellipse cx="302" cy="246" rx="24" ry="18" fill="#fff" stroke="#1b1510" stroke-width="5"/>
  <circle cx="214" cy="248" r="8" fill="#1d1812"/>
  <circle cx="302" cy="248" r="8" fill="#1d1812"/>
  <path d="M196 308q60 42 120 0" fill="none" stroke="#7d2b2b" stroke-width="10" stroke-linecap="round"/>
  <path d="M256 304q0 42 34 62" fill="none" stroke="#cf4f42" stroke-width="10" stroke-linecap="round"/>

  <!-- 珍奶 -->
  <path d="M348 318l54 20l-12 60l-56-16z" fill="#744d2a" stroke="#1c130d" stroke-width="6"/>
  <path d="M366 314l8-26" stroke="#1c130d" stroke-width="8" stroke-linecap="round"/>
  <circle cx="360" cy="364" r="6" fill="#1a120d"/>
  <circle cx="376" cy="368" r="6" fill="#1a120d"/>

  <g filter="url(#ink2)">
    <path d="M70 92q178-52 374 0" fill="none" stroke="#000" stroke-width="4"/>
    <path d="M76 438q174 30 362 0" fill="none" stroke="#000" stroke-width="4"/>
  </g>
</svg>
